<svg width="26" height="26" viewBox="0 0 26 26" fill="none" xmlns="http://www.w3.org/2000/svg">
<path fill-rule="evenodd" clip-rule="evenodd" d="M5.6276 15.1258V12.322C5.6276 11.9339 5.92956 11.5891 6.31779 11.5891H9.12165C9.5099 11.5891 9.81182 11.9339 9.81182 12.322V15.1258H5.6276ZM11.2354 15.1258V9.47536C11.2354 9.08693 11.5373 8.78488 12.0118 8.78488H14.7725C15.2039 8.78488 15.5059 9.08761 15.5059 9.47536V15.1258H11.2354ZM16.8431 15.1258V6.67111C16.8431 6.28336 17.1882 5.98146 17.5764 5.98146H20.3803C20.7685 5.98146 21.0704 6.28438 21.0704 6.67111V15.1258H16.8431ZM12.6588 17.6016V19.0253H11.7961L12.4 17.6016H12.6588ZM14.298 17.6016L14.9019 19.0253H14.0392V17.6016H14.298ZM13.3921 0.519531C13.0471 0.519531 12.702 0.864326 12.702 1.29595V2.02919H2.04728C1.65905 2.02919 1.31396 2.33192 1.31396 2.71967C1.31396 3.1081 1.65905 3.40973 2.04728 3.40973H2.82374V16.2211H2.09042C1.65906 16.2211 1.31396 16.5241 1.31396 16.9543C1.31396 17.3427 1.65906 17.688 2.09042 17.688H10.9334L8.56088 23.7698C8.34511 24.1147 8.56088 24.5033 8.94911 24.6326C9.03571 24.6768 9.12176 24.6766 9.20798 24.6766C9.46686 24.6766 9.76875 24.5476 9.81192 24.202L11.3648 20.4926H12.702V22.5209C12.702 22.9086 13.0471 23.2541 13.3922 23.2541C13.7804 23.2541 14.1255 22.9086 14.1255 22.5209V20.4926H15.5059L16.9726 24.202C17.145 24.5479 17.4039 24.6766 17.6627 24.6766C17.7058 24.6766 17.792 24.6768 17.8785 24.6326C18.2668 24.4659 18.4393 24.0715 18.2668 23.7698L15.8943 17.688H24.7372C25.1686 17.688 25.4706 17.3427 25.4706 16.9543C25.4706 16.5234 25.1686 16.2211 24.7372 16.2211H24.0037V3.40973H24.737C25.1684 3.40973 25.4704 3.10707 25.4704 2.71967C25.4704 2.33124 25.1684 2.02919 24.737 2.02919H14.1255V1.29595C14.1255 0.864326 13.7804 0.519531 13.3921 0.519531V0.519531Z" stroke="white" stroke-width="0.899927"/>
</svg>
